<svg xmlns="http://www.w3.org/2000/svg" version="1.1" xmlns:xlink="http://www.w3.org/1999/xlink" xmlns:svgjs="http://svgjs.dev/svgjs" width="1440" height="560" preserveAspectRatio="none" viewBox="0 0 1440 560"><g mask="url(&quot;#SvgjsMask1010&quot;)" fill="none"><rect width="1440" height="560" x="0" y="0" fill="url(&quot;#SvgjsLinearGradient1011&quot;)"></rect><path d="M0 313.69L10 375L20 396.75L30 345.55L40 394.9L50 421.49L60 457.59L70 399.22L80 348.62L90 370.78L100 393.48L110 346.64L120 379.46L130 322.72L140 369.01L150 328.91L160 324.41L170 297.36L180 353.53L190 340.06L200 389.09L210 438.18L220 375.48L230 436.89L240 373.93L250 355.49L260 369.16L270 365.48L280 413.59L290 382.83L300 417.52L310 435.56L320 454.82L330 505.98L340 488.27L350 432.41L360 459.89L370 464.62L380 430.57L390 362.38L400 398.09L410 341.42L420 333.46L430 337.63L440 274.68L450 215.57L460 160.18L470 191.99L480 252.8L490 199.14L500 207.99L510 166.8L520 166.74L530 171.4L540 167.74L550 163.57L560 233.18L570 221.8L580 233.54L590 197.99L600 133.22L610 120.95L620 99.39L630 53.27L640 35.7L650 64.82L660 103.24L670 74.46L680 104.89L690 143.87L700 152.02L710 112.84L720 145.74L730 185.02L740 233.41L750 229.44L760 274.41L770 323.12L780 359.91L790 379.88L800 343.01L810 346.09L820 352.72L830 384.09L840 359.52L850 400.48L860 363.55L870 300.45L880 241.31L890 230.3L900 236.62L910 282.76L920 229.92L930 222.35L940 196.14L950 168.03L960 194.04L970 203.35L980 214.13L990 168.75L1000 190.94L1010 259.28L1020 243.57L1030 245.69L1040 272.48L1050 337.89L1060 360.36L1070 370.11L1080 308.37L1090 257.74L1100 220.15L1110 275.09L1120 245.96L1130 222.65L1140 172.38L1150 134.87L1160 179.03L1170 122.17L1180 71.44L1190 68.16L1200 58.21L1210 47.15L1220 54.95L1230 14.58L1240 1.45L1250 59.8L1260 71.39L1270 52.93L1280 77.35L1290 51.87L1300 37.42L1310 95.18L1320 25.76L1330 32.61L1340 78.59L1350 79.61L1360 92.11L1370 130.35L1380 137.4L1390 78.1L1400 14.41L1410 1.92L1420 7.6L1430 39.23L1440 62.27" stroke="#224b75" stroke-width="2"></path><path d="M0 313.69L10 375L20 396.75L30 345.55L40 394.9L50 421.49L60 457.59L70 399.22L80 348.62L90 370.78L100 393.48L110 346.64L120 379.46L130 322.72L140 369.01L150 328.91L160 324.41L170 297.36L180 353.53L190 340.06L200 389.09L210 438.18L220 375.48L230 436.89L240 373.93L250 355.49L260 369.16L270 365.48L280 413.59L290 382.83L300 417.52L310 435.56L320 454.82L330 505.98L340 488.27L350 432.41L360 459.89L370 464.62L380 430.57L390 362.38L400 398.09L410 341.42L420 333.46L430 337.63L440 274.68L450 215.57L460 160.18L470 191.99L480 252.8L490 199.14L500 207.99L510 166.8L520 166.74L530 171.4L540 167.74L550 163.57L560 233.18L570 221.8L580 233.54L590 197.99L600 133.22L610 120.95L620 99.39L630 53.27L640 35.7L650 64.82L660 103.24L670 74.46L680 104.89L690 143.87L700 152.02L710 112.84L720 145.74L730 185.02L740 233.41L750 229.44L760 274.41L770 323.12L780 359.91L790 379.88L800 343.01L810 346.09L820 352.72L830 384.09L840 359.52L850 400.48L860 363.55L870 300.45L880 241.31L890 230.3L900 236.62L910 282.76L920 229.92L930 222.35L940 196.14L950 168.03L960 194.04L970 203.35L980 214.13L990 168.75L1000 190.94L1010 259.28L1020 243.57L1030 245.69L1040 272.48L1050 337.89L1060 360.36L1070 370.11L1080 308.37L1090 257.74L1100 220.15L1110 275.09L1120 245.96L1130 222.65L1140 172.38L1150 134.87L1160 179.03L1170 122.17L1180 71.44L1190 68.16L1200 58.21L1210 47.15L1220 54.95L1230 14.58L1240 1.45L1250 59.8L1260 71.39L1270 52.93L1280 77.35L1290 51.87L1300 37.42L1310 95.18L1320 25.76L1330 32.61L1340 78.59L1350 79.61L1360 92.11L1370 130.35L1380 137.4L1390 78.1L1400 14.41L1410 1.92L1420 7.6L1430 39.23L1440 62.27L1440 560L0 560z" fill="url(&quot;#SvgjsLinearGradient1012&quot;)"></path></g><defs><mask id="SvgjsMask1010"><rect width="1440" height="560" fill="#ffffff"></rect></mask><linearGradient x1="15.28%" y1="-39.29%" x2="84.72%" y2="139.29%" gradientUnits="userSpaceOnUse" id="SvgjsLinearGradient1011"><stop stop-color="#0e2a47" offset="0"></stop><stop stop-color="#00459e" offset="1"></stop></linearGradient><linearGradient x1="50%" y1="0%" x2="50%" y2="100%" id="SvgjsLinearGradient1012"><stop stop-opacity="0.65" stop-color="#224b75" offset="0"></stop><stop stop-opacity="0" stop-color="#508dcc" offset="0.8"></stop></linearGradient></defs></svg>